HIERARCHY
ROOT Hips
{
  OFFSET -35.4901 99.2528 17.4586
  CHANNELS 6 Xposition Yposition Zposition Zrotation Xrotation Yrotation
  JOINT LeftUpLeg
  {
    OFFSET 8.64259 1.95398 -2.38835
    CHANNELS 3 Zrotation Xrotation Yrotation
    JOINT LeftLeg
    {
      OFFSET 43.7702 0 0
      CHANNELS 3 Zrotation Xrotation Yrotation
      JOINT LeftFoot
      {
        OFFSET 40.6238 0 0
        CHANNELS 3 Zrotation Xrotation Yrotation
        JOINT LeftToeBase
        {
          OFFSET 12.7242 0 0
          CHANNELS 3 Zrotation Xrotation Yrotation
          End Site
          {
            OFFSET 0 0 0
          }
        }
      }
    }
  }
  JOINT RightUpLeg
  {
    OFFSET -8.2249 1.95398 -2.59336
    CHANNELS 3 Zrotation Xrotation Yrotation
    JOINT RightLeg
    {
      OFFSET 43.5653 0 0
      CHANNELS 3 Zrotation Xrotation Yrotation
      JOINT RightFoot
      {
        OFFSET 40.6238 0 0
        CHANNELS 3 Zrotation Xrotation Yrotation
        JOINT RightToeBase
        {
          OFFSET 12.7242 0 0
          CHANNELS 3 Zrotation Xrotation Yrotation
          End Site
          {
            OFFSET 0 0 0
          }
        }
      }
    }
  }
  JOINT Spine
  {
    OFFSET 0.165834 0.87714 6.61349
    CHANNELS 3 Zrotation Xrotation Yrotation
    JOINT Spine1
    {
      OFFSET 7.38963 1.71661e-005 0
      CHANNELS 3 Zrotation Xrotation Yrotation
      JOINT Spine2
      {
        OFFSET 11.9445 1.14441e-005 0
        CHANNELS 3 Zrotation Xrotation Yrotation
        JOINT Spine3
        {
          OFFSET 14.7254 4.19617e-005 0
          CHANNELS 3 Zrotation Xrotation Yrotation
          JOINT Spine4
          {
            OFFSET 10.9679 0 0
            CHANNELS 3 Zrotation Xrotation Yrotation
            JOINT RightShoulder
            {
              OFFSET 2.46616 -1.6653 3.69651
              CHANNELS 3 Zrotation Xrotation Yrotation
              JOINT RightArm
              {
                OFFSET 13.0012 0 0
                CHANNELS 3 Zrotation Xrotation Yrotation
                JOINT RightForeArm
                {
                  OFFSET 28.7848 1.52588e-005 0
                  CHANNELS 3 Zrotation Xrotation Yrotation
                  JOINT RightHand
                  {
                    OFFSET 26.5688 1.52588e-005 0
                    CHANNELS 3 Zrotation Xrotation Yrotation
                    End Site
                    {
                      OFFSET 0 0 0
                    }
                  }
                }
              }
            }
            JOINT LeftShoulder
            {
              OFFSET 2.38034 -1.29275 -3.7523
              CHANNELS 3 Zrotation Xrotation Yrotation
              JOINT LeftArm
              {
                OFFSET 16.3182 6.10351e-005 0
                CHANNELS 3 Zrotation Xrotation Yrotation
                JOINT LeftForeArm
                {
                  OFFSET 27.0901 0 0
                  CHANNELS 3 Zrotation Xrotation Yrotation
                  JOINT LeftHand
                  {
                    OFFSET 24.5451 1.52588e-005 0
                    CHANNELS 3 Zrotation Xrotation Yrotation
                    End Site
                    {
                      OFFSET 0 0 0
                    }
                  }
                }
              }
            }
            JOINT Neck
            {
              OFFSET 5.0226 -0.0266342 0
              CHANNELS 3 Zrotation Xrotation Yrotation
              JOINT Head
              {
                OFFSET 6.69364 2.86102e-005 0
                CHANNELS 3 Zrotation Xrotation Yrotation
                End Site
                {
                  OFFSET 0 0 0
                }
              }
            }
          }
        }
      }
    }
  }
}
MOTION
Frames:	6
Frame Time:	0.0416667
-92.6064 93.0594 -80.3834 -114.638 52.7448 -77.3367 -171.14 14.4349 84.8948 -41.4966 7.1583 -8.26832 69.7617 4.86331 6.17852 15.8843 2.21691 -1.92709 176.707 -7.59201 74.0514 -69.1253 -30.978 -11.8275 56.3427 0.980919 -1.3203 19.2258 -1.69856 4.73349 1.40722 8.54125 -89.3846 9.77899 3.0838 0.975395 -1.88855 3.12376 0.8386 -24.4438 2.64805 1.85758 -4.43115 2.64807 1.85758 89.6315 -26.9856 -108.73 29.2555 -0.322353 -53.0692 -29.0638 -21.1796 -64.6714 -43.9467 1.1008 -10.5774 -84.4864 -49.4459 86.9451 -22.5396 10.0406 15.7179 -0.610919 4.85399 0.0644095 3.33458 0.121243 -0.125938 19.0341 1.2367 -0.634797 -6.23784 1.3357 1.42969 
-95.59 94.3809 -82.7534 -112.196 52.1711 -78.8847 -172.356 11.7224 84.6161 -38.7077 6.65986 -8.07441 70.8471 5.29003 6.10255 16.6648 2.31379 -2.14939 -178.977 -0.566632 77.3921 -72.9823 -24.5031 -9.77835 60.5615 -1.00691 -1.9591 19.3399 -0.967668 3.22262 1.17634 8.39127 -89.4469 10.0814 2.59613 0.881599 -1.58722 2.63242 0.766414 -24.136 2.21114 1.62135 -4.12339 2.21113 1.62135 88.9416 -29.2842 -109.15 27.4166 -5.94495 -44.2327 -30.6646 -18.8606 -67.0495 -46.3333 0.995173 -9.98241 -83.7706 -51.4619 88.2538 -20.8043 12.3746 6.74159 -0.234445 4.52336 -3.69757 2.8391 0.0739245 -0.704655 17.5354 1.91025 0.236776 -5.61081 1.76292 0.573689 
-98.3405 96.16 -85.3454 -110.541 49.0147 -78.6096 -173.99 7.5461 85.6254 -34.5012 8.61334 -6.4382 70.7689 5.16301 5.83122 16.809 1.51507 -1.09255 -178.53 4.44729 81.277 -71.4191 -21.2391 -7.84361 63.9339 -2.66094 -3.06893 16.7752 -1.34054 4.09658 0.811929 8.33721 -89.7429 10.1973 1.73495 0.363122 -1.47251 1.74927 0.286374 -24.015 1.5456 0.867861 -4.00235 1.54561 0.86787 88.7653 -30.5903 -108.953 28.1365 -10.1377 -33.6897 -38.686 -22.4672 -67.9404 -38.0621 0.708493 -11.3349 -83.3266 -53.8738 89.145 -18.111 14.1895 -3.4317 -0.148643 1.24592 -8.71436 1.91474 -0.11796 -5.10273 15.8609 2.19372 1.519 -5.14645 1.71972 -0.388251 
-100.963 97.5597 -87.7447 -108.148 45.0643 -79.0193 -175.306 4.07886 86.3788 -30.5507 11.5964 -4.3603 70.6376 5.1223 6.04331 16.8487 1.19124 -0.659744 179.764 9.26189 84.3599 -66.2461 -17.3814 -6.04421 65.3959 -3.37076 -3.45721 16.7156 -1.12126 3.65725 0.437311 8.24828 -89.9193 10.3773 0.908227 0.0805977 -1.29337 0.9109 0.0405346 -23.8308 0.842005 0.349852 -3.81811 0.842015 0.349846 88.2568 -32.4112 -109.19 28.3144 -13.7933 -23.3126 -30.772 -21.6224 -62.7762 -33.2096 1.04311 -12.6727 -83.8745 -53.0348 88.2659 -18.4771 14.5485 -13.1802 0.882228 0.106403 -14.2939 1.40341 -0.199805 -7.83655 14.3032 1.41121 -0.0675422 -4.66552 1.38985 0.00192732 
-103.757 98.4928 -90.1236 -105.991 40.6654 -79.4879 -176.334 1.03269 87.1647 -27.8012 14.77 -2.14633 71.1301 5.30099 6.53786 17.3338 1.32494 -0.891863 176.744 12.3612 86.2294 -56.8718 -13.5521 -4.05225 65.3953 -3.45321 -3.76191 17.2628 -1.03304 3.45495 0.076509 8.23825 -90.1059 10.3978 0.103972 -0.219163 -1.27317 0.0942372 -0.223537 -23.8083 0.165049 -0.177781 -3.79561 0.165035 -0.177789 87.8248 -33.118 -109.72 29.4338 -18.5857 -13.4029 -15.4989 -6.8855 -49.9794 -25.526 0.194152 -7.29584 -84.3691 -52.5038 87.4844 -15.258 17.7145 -26.2304 -0.346199 -1.41227 -17.0799 2.77608 -0.231545 -7.90331 14.1453 0.503457 -1.66288 -4.32915 0.906936 0.917374 
-106.149 98.9993 -92.5147 -103.939 37.1968 -80.3625 -176.409 -1.30289 87.9718 -25.5593 17.5428 -0.950306 71.4892 5.42048 6.51628 17.8947 1.8723 -1.69825 175.006 14.6231 87.7292 -45.0022 -10.3981 -2.64903 64.3689 -3.06563 -3.12636 16.7729 -1.01512 3.43807 -0.0964402 8.20596 -90.2154 10.4612 -0.29081 -0.402291 -1.20974 -0.30824 -0.389109 -23.7445 -0.156463 -0.471094 -3.73188 -0.156471 -0.471099 88.1315 -32.9199 -109.223 32.2049 -14.851 -5.9959 -16.8384 -23.3085 -41.5982 -27.5663 0.32103 -9.81986 -85.7098 -51.0363 85.3161 -12.5984 18.3313 -39.689 1.54108 4.56204 -18.1961 2.8423 -0.269144 -8.34755 14.163 -0.784551 -3.03755 -3.86013 0.0129564 1.04848 
